<!-- SVG Icons and Logos Collection -->

<!-- University of Siegen Logo SVG -->
<svg id="usiegen-logo" xmlns="http://www.w3.org/2000/svg" viewBox="0 0 100 100">
  <rect width="100" height="100" fill="#2563eb"/>
  <text x="50" y="45" font-family="Arial, sans-serif" font-size="28" font-weight="bold" fill="white" text-anchor="middle">US</text>
  <text x="50" y="70" font-family="Arial, sans-serif" font-size="12" fill="white" text-anchor="middle">SIEGEN</text>
</svg>

<!-- Hellenic Mediterranean University Logo SVG -->
<svg id="hmu-logo" xmlns="http://www.w3.org/2000/svg" viewBox="0 0 100 100">
  <rect width="100" height="100" fill="#2563eb"/>
  <circle cx="50" cy="35" r="15" fill="none" stroke="white" stroke-width="3"/>
  <rect x="20" y="50" width="60" height="30" fill="none" stroke="white" stroke-width="3"/>
  <text x="50" y="90" font-family="Arial, sans-serif" font-size="10" fill="white" text-anchor="middle">HMU</text>
</svg>

<!-- University of Orléans Logo SVG -->
<svg id="orleans-logo" xmlns="http://www.w3.org/2000/svg" viewBox="0 0 100 100">
  <rect width="100" height="100" fill="#2563eb"/>
  <circle cx="50" cy="40" r="20" fill="none" stroke="white" stroke-width="3"/>
  <text x="50" y="75" font-family="Arial, sans-serif" font-size="14" font-weight="bold" fill="white" text-anchor="middle">UO</text>
</svg>

<!-- Robot Icon for Robotics Projects -->
<svg id="robot-icon" xmlns="http://www.w3.org/2000/svg" viewBox="0 0 100 100">
  <rect width="100" height="100" fill="#f0f0f0"/>
  <rect x="25" y="30" width="50" height="40" fill="#2563eb" rx="5"/>
  <circle cx="40" cy="45" r="5" fill="white"/>
  <circle cx="60" cy="45" r="5" fill="white"/>
  <rect x="38" y="58" width="24" height="3" fill="white" rx="1"/>
  <rect x="20" y="20" width="10" height="10" fill="#2563eb" rx="2"/>
  <rect x="70" y="20" width="10" height="10" fill="#2563eb" rx="2"/>
  <rect x="15" y="50" width="8" height="20" fill="#1e40af" rx="2"/>
  <rect x="77" y="50" width="8" height="20" fill="#1e40af" rx="2"/>
</svg>

<!-- Drone Icon -->
<svg id="drone-icon" xmlns="http://www.w3.org/2000/svg" viewBox="0 0 100 100">
  <rect width="100" height="100" fill="#f0f0f0"/>
  <ellipse cx="50" cy="50" rx="15" ry="8" fill="#2563eb"/>
  <circle cx="25" cy="30" r="12" fill="#1e40af" opacity="0.7"/>
  <circle cx="75" cy="30" r="12" fill="#1e40af" opacity="0.7"/>
  <circle cx="25" cy="70" r="12" fill="#1e40af" opacity="0.7"/>
  <circle cx="75" cy="70" r="12" fill="#1e40af" opacity="0.7"/>
  <line x1="35" y1="40" x2="45" y2="48" stroke="#2563eb" stroke-width="2"/>
  <line x1="65" y1="40" x2="55" y2="48" stroke="#2563eb" stroke-width="2"/>
  <line x1="35" y1="60" x2="45" y2="52" stroke="#2563eb" stroke-width="2"/>
  <line x1="65" y1="60" x2="55" y2="52" stroke="#2563eb" stroke-width="2"/>
</svg>

<!-- PLC/Automation Icon -->
<svg id="plc-icon" xmlns="http://www.w3.org/2000/svg" viewBox="0 0 100 100">
  <rect width="100" height="100" fill="#f0f0f0"/>
  <rect x="20" y="25" width="60" height="50" fill="#2563eb" rx="3"/>
  <rect x="25" y="30" width="20" height="15" fill="#1e40af"/>
  <rect x="50" y="30" width="20" height="15" fill="#1e40af"/>
  <rect x="25" y="50" width="20" height="15" fill="#1e40af"/>
  <rect x="50" y="50" width="20" height="15" fill="#1e40af"/>
  <circle cx="78" cy="40" r="3" fill="#4ade80"/>
  <circle cx="78" cy="50" r="3" fill="#4ade80"/>
  <circle cx="78" cy="60" r="3" fill="#fbbf24"/>
</svg>

<!-- AI/Neural Network Icon -->
<svg id="ai-icon" xmlns="http://www.w3.org/2000/svg" viewBox="0 0 100 100">
  <rect width="100" height="100" fill="#f0f0f0"/>
  <circle cx="25" cy="30" r="5" fill="#2563eb"/>
  <circle cx="25" cy="50" r="5" fill="#2563eb"/>
  <circle cx="25" cy="70" r="5" fill="#2563eb"/>
  <circle cx="50" cy="25" r="5" fill="#1e40af"/>
  <circle cx="50" cy="40" r="5" fill="#1e40af"/>
  <circle cx="50" cy="55" r="5" fill="#1e40af"/>
  <circle cx="50" cy="75" r="5" fill="#1e40af"/>
  <circle cx="75" cy="35" r="5" fill="#2563eb"/>
  <circle cx="75" cy="50" r="5" fill="#2563eb"/>
  <circle cx="75" cy="65" r="5" fill="#2563eb"/>
  <line x1="30" y1="30" x2="45" y2="25" stroke="#2563eb" stroke-width="1" opacity="0.5"/>
  <line x1="30" y1="50" x2="45" y2="40" stroke="#2563eb" stroke-width="1" opacity="0.5"/>
  <line x1="30" y1="70" x2="45" y2="75" stroke="#2563eb" stroke-width="1" opacity="0.5"/>
  <line x1="55" y1="25" x2="70" y2="35" stroke="#1e40af" stroke-width="1" opacity="0.5"/>
  <line x1="55" y1="40" x2="70" y2="50" stroke="#1e40af" stroke-width="1" opacity="0.5"/>
  <line x1="55" y1="55" x2="70" y2="50" stroke="#1e40af" stroke-width="1" opacity="0.5"/>
  <line x1="55" y1="75" x2="70" y2="65" stroke="#1e40af" stroke-width="1" opacity="0.5"/>
</svg>

<!-- SLAM Icon -->
<svg id="slam-icon" xmlns="http://www.w3.org/2000/svg" viewBox="0 0 100 100">
  <rect width="100" height="100" fill="#f0f0f0"/>
  <circle cx="50" cy="50" r="30" fill="none" stroke="#2563eb" stroke-width="2" stroke-dasharray="5,3"/>
  <circle cx="50" cy="50" r="20" fill="none" stroke="#1e40af" stroke-width="2" stroke-dasharray="3,2"/>
  <circle cx="50" cy="50" r="5" fill="#2563eb"/>
  <circle cx="35" cy="35" r="3" fill="#1e40af"/>
  <circle cx="65" cy="35" r="3" fill="#1e40af"/>
  <circle cx="35" cy="65" r="3" fill="#1e40af"/>
  <circle cx="65" cy="65" r="3" fill="#1e40af"/>
  <line x1="50" y1="50" x2="35" y2="35" stroke="#2563eb" stroke-width="1"/>
  <line x1="50" y1="50" x2="65" y2="35" stroke="#2563eb" stroke-width="1"/>
  <line x1="50" y1="50" x2="35" y2="65" stroke="#2563eb" stroke-width="1"/>
  <line x1="50" y1="50" x2="65" y2="65" stroke="#2563eb" stroke-width="1"/>
</svg>

<!-- DevOps/CI-CD Icon -->
<svg id="devops-icon" xmlns="http://www.w3.org/2000/svg" viewBox="0 0 100 100">
  <rect width="100" height="100" fill="#f0f0f0"/>
  <circle cx="50" cy="50" r="25" fill="none" stroke="#2563eb" stroke-width="3"/>
  <path d="M 50 25 L 65 40 L 50 55 L 35 40 Z" fill="#2563eb"/>
  <path d="M 50 45 L 65 60 L 50 75 L 35 60 Z" fill="#1e40af"/>
  <circle cx="50" cy="25" r="3" fill="#4ade80"/>
  <circle cx="65" cy="40" r="3" fill="#4ade80"/>
  <circle cx="50" cy="55" r="3" fill="#fbbf24"/>
</svg>
